<svg width="50" height="50" viewBox="0 0 50 50" fill="none" xmlns="http://www.w3.org/2000/svg">
<path d="M45.8346 39.5833V45.8333H4.16797V39.5833C4.16797 38.4375 5.10547 37.5 6.2513 37.5H43.7513C44.8971 37.5 45.8346 38.4375 45.8346 39.5833Z" fill="white" stroke="white" stroke-width="1.5" stroke-miterlimit="10" stroke-linecap="round" stroke-linejoin="round"/>
<path opacity="0.6" d="M16.6654 22.9167H8.33203V37.5001H16.6654V22.9167Z" fill="white"/>
<path opacity="0.4" d="M25.0013 22.9167H16.668V37.5001H25.0013V22.9167Z" fill="white"/>
<path opacity="0.6" d="M33.3333 22.9166H25V37.5H33.3333V22.9166Z" fill="white"/>
<path opacity="0.4" d="M41.6654 22.9167H33.332V37.5001H41.6654V22.9167Z" fill="white"/>
<path d="M47.9154 47.3958H2.08203C1.22786 47.3958 0.519531 46.6874 0.519531 45.8333C0.519531 44.9791 1.22786 44.2708 2.08203 44.2708H47.9154C48.7695 44.2708 49.4779 44.9791 49.4779 45.8333C49.4779 46.6874 48.7695 47.3958 47.9154 47.3958Z" fill="white"/>
<path d="M44.5221 11.9792L25.7721 4.47925C25.3555 4.31258 24.6471 4.31258 24.2305 4.47925L5.48048 11.9792C4.75131 12.2709 4.16797 13.125 4.16797 13.9167V20.8334C4.16797 21.9792 5.10547 22.9167 6.2513 22.9167H43.7513C44.8971 22.9167 45.8346 21.9792 45.8346 20.8334V13.9167C45.8346 13.125 45.2513 12.2709 44.5221 11.9792ZM25.0013 17.7084C23.2721 17.7084 21.8763 16.3125 21.8763 14.5834C21.8763 12.8542 23.2721 11.4584 25.0013 11.4584C26.7305 11.4584 28.1263 12.8542 28.1263 14.5834C28.1263 16.3125 26.7305 17.7084 25.0013 17.7084Z" fill="white"/>
</svg>
