<svg width="237" height="69" viewBox="0 0 237 69" fill="none" xmlns="http://www.w3.org/2000/svg">
<path d="M233.809 65.5896C237.146 63.136 237.877 58.4281 235.26 55.2177C221.92 38.8547 205.256 25.469 186.341 15.9658C165.189 5.33867 141.822 -0.131551 118.151 0.00240169C94.48 0.136355 71.1766 5.87068 50.1462 16.7365C31.34 26.4532 14.8291 40.0266 1.67504 56.5395C-0.905792 59.7794 -0.121849 64.4787 3.24293 66.8943C6.60772 69.31 11.2776 68.5257 13.8764 65.3003C25.6376 50.7031 40.3288 38.6928 57.0316 30.0629C75.9589 20.2836 96.932 15.1227 118.236 15.0022C139.54 14.8816 160.57 19.8048 179.607 29.3692C196.406 37.8096 211.233 49.6528 223.158 64.116C225.793 67.3118 230.472 68.0432 233.809 65.5896Z" fill="#0047FF"/>
</svg>
