<svg width="50" height="50" viewBox="0 0 50 50" fill="none" xmlns="http://www.w3.org/2000/svg">
<path d="M45.8333 17.7083C45.8333 25.1875 39.7708 31.25 32.2917 31.25C31.9375 31.25 31.5625 31.2291 31.2084 31.2083C30.6875 24.6041 25.3958 19.3125 18.7916 18.7916C18.7708 18.4375 18.75 18.0625 18.75 17.7083C18.75 10.2291 24.8125 4.16663 32.2917 4.16663C39.7708 4.16663 45.8333 10.2291 45.8333 17.7083Z" fill="white"/>
<path opacity="0.6" d="M31.2513 32.2917C31.2513 39.7708 25.1888 45.8333 17.7096 45.8333C10.2305 45.8333 4.16797 39.7708 4.16797 32.2917C4.16797 24.8125 10.2305 18.75 17.7096 18.75C18.0638 18.75 18.4388 18.7708 18.7929 18.7917C25.3971 19.3125 30.6888 24.6042 31.2097 31.2083C31.2305 31.5625 31.2513 31.9375 31.2513 32.2917Z" fill="white"/>
<path d="M15.875 30.4584L17.7083 27.0834L19.5417 30.4584L22.9167 32.2917L19.5417 34.1251L17.7083 37.5L15.875 34.1251L12.5 32.2917L15.875 30.4584Z" fill="white"/>
</svg>
