<svg width="24" height="24" viewBox="0 0 24 24" fill="none" xmlns="http://www.w3.org/2000/svg">
<path opacity="0.4" d="M19 9C19 10.45 18.57 11.78 17.83 12.89C16.75 14.49 15.04 15.62 13.05 15.91C12.71 15.97 12.36 16 12 16C11.64 16 11.29 15.97 10.95 15.91C8.96 15.62 7.25 14.49 6.17 12.89C5.43 11.78 5 10.45 5 9C5 5.13 8.13 2 12 2C15.87 2 19 5.13 19 9Z" fill="white"/>
<path d="M21.2511 18.47L19.6011 18.86C19.2311 18.95 18.9411 19.23 18.8611 19.6L18.5111 21.07C18.3211 21.87 17.3011 22.11 16.7711 21.48L12.0011 16L7.23106 21.49C6.70106 22.12 5.68106 21.88 5.49106 21.08L5.14106 19.61C5.05106 19.24 4.76106 18.95 4.40106 18.87L2.75106 18.48C1.99106 18.3 1.72106 17.35 2.27106 16.8L6.17106 12.9C7.25106 14.5 8.96106 15.63 10.9511 15.92C11.2911 15.98 11.6411 16.01 12.0011 16.01C12.3611 16.01 12.7111 15.98 13.0511 15.92C15.0411 15.63 16.7511 14.5 17.8311 12.9L21.7311 16.8C22.2811 17.34 22.0111 18.29 21.2511 18.47Z" fill="white"/>
<path d="M12.578 5.98L13.168 7.15999C13.248 7.31999 13.458 7.48 13.648 7.51L14.718 7.68999C15.398 7.79999 15.558 8.3 15.068 8.79L14.238 9.61998C14.098 9.75998 14.018 10.03 14.068 10.23L14.308 11.26C14.498 12.07 14.068 12.39 13.348 11.96L12.348 11.37C12.168 11.26 11.868 11.26 11.688 11.37L10.688 11.96C9.96802 12.38 9.53802 12.07 9.72802 11.26L9.96802 10.23C10.008 10.04 9.93802 9.75998 9.79802 9.61998L8.96802 8.79C8.47802 8.3 8.63802 7.80999 9.31802 7.68999L10.388 7.51C10.568 7.48 10.778 7.31999 10.858 7.15999L11.448 5.98C11.738 5.34 12.258 5.34 12.578 5.98Z" fill="white"/>
</svg>
