<svg width="50" height="50" viewBox="0 0 50 50" fill="none" xmlns="http://www.w3.org/2000/svg">
<path opacity="0.4" d="M36.5182 16.1875C36.3724 16.1666 36.2266 16.1666 36.0807 16.1875C32.8516 16.0833 30.2891 13.4375 30.2891 10.1875C30.2891 6.87496 32.9766 4.16663 36.3099 4.16663C39.6224 4.16663 42.3307 6.85412 42.3307 10.1875C42.3099 13.4375 39.7474 16.0833 36.5182 16.1875Z" fill="white"/>
<path opacity="0.4" d="M43.3151 30.6248C40.9818 32.1873 37.7109 32.7707 34.6901 32.3748C35.4818 30.6665 35.8984 28.7707 35.9193 26.7707C35.9193 24.6874 35.4609 22.7082 34.5859 20.979C37.6693 20.5624 40.9401 21.1457 43.2943 22.7082C46.5859 24.8748 46.5859 28.4373 43.3151 30.6248Z" fill="white"/>
<path opacity="0.4" d="M13.4141 16.1875C13.5599 16.1666 13.7057 16.1666 13.8516 16.1875C17.0807 16.0833 19.6432 13.4375 19.6432 10.1875C19.6432 6.87496 16.9557 4.16663 13.6224 4.16663C10.3099 4.16663 7.60156 6.85412 7.60156 10.1875C7.6224 13.4375 10.1849 16.0833 13.4141 16.1875Z" fill="white"/>
<path opacity="0.4" d="M13.6497 26.7711C13.6497 28.7919 14.0872 30.7086 14.8789 32.4378C11.9414 32.7503 8.87891 32.1253 6.62891 30.6461C3.33724 28.4586 3.33724 24.8961 6.62891 22.7086C8.85807 21.2086 12.0039 20.6044 14.9622 20.9378C14.1081 22.6878 13.6497 24.6669 13.6497 26.7711Z" fill="white"/>
<path d="M25.25 33.0625C25.0833 33.0417 24.8958 33.0417 24.7083 33.0625C20.875 32.9375 17.8125 29.7917 17.8125 25.9167C17.8125 21.9583 21 18.75 24.9792 18.75C28.9375 18.75 32.1458 21.9583 32.1458 25.9167C32.1458 29.7917 29.1042 32.9375 25.25 33.0625Z" fill="white"/>
<path d="M18.4805 37.3748C15.3346 39.4789 15.3346 42.9373 18.4805 45.0206C22.0638 47.4164 27.9388 47.4164 31.5221 45.0206C34.668 42.9164 34.668 39.4581 31.5221 37.3748C27.9596 34.9789 22.0846 34.9789 18.4805 37.3748Z" fill="white"/>
</svg>
