<svg width="292" height="85" viewBox="0 0 292 85" fill="none" xmlns="http://www.w3.org/2000/svg">
<path d="M287.715 80.6752C291.82 77.6572 292.719 71.8666 289.499 67.9178C273.091 47.7913 252.595 31.3269 229.33 19.6379C203.313 6.56656 174.572 -0.161808 145.456 0.00295408C116.34 0.167716 87.6772 7.22093 61.8098 20.5859C38.6783 32.5374 18.3698 49.2327 2.19029 69.5436C-0.984127 73.5286 -0.0198761 79.3087 4.11881 82.28V82.28C8.25749 85.2513 14.0015 84.2867 17.198 80.3193C31.6642 62.3648 49.7344 47.5921 70.2788 36.9773C93.5595 24.9488 119.356 18.6009 145.56 18.4527C171.764 18.3044 197.631 24.3599 221.047 36.1241C241.71 46.5058 259.946 61.0729 274.615 78.8626C277.856 82.7935 283.61 83.6931 287.715 80.6752V80.6752Z" fill="#FF00A8"/>
</svg>
