<svg width="50" height="50" viewBox="0 0 50 50" fill="none" xmlns="http://www.w3.org/2000/svg">
<path opacity="0.4" d="M43.75 4.16663V29.375C43.75 33.3333 41.6667 35.4166 37.7083 35.4166H12.2917C8.33332 35.4166 6.25 33.3333 6.25 29.375V4.16663H43.75Z" fill="white"/>
<path d="M45.8346 5.72925H4.16797C3.3138 5.72925 2.60547 5.02091 2.60547 4.16675C2.60547 3.31258 3.3138 2.60425 4.16797 2.60425H45.8346C46.6888 2.60425 47.3971 3.31258 47.3971 4.16675C47.3971 5.02091 46.6888 5.72925 45.8346 5.72925Z" fill="white"/>
<path d="M34.7273 46.5417C34.4565 47.0834 33.8939 47.3959 33.3314 47.3959C33.1023 47.3959 32.8523 47.3334 32.644 47.2293L24.9981 43.4167L17.3523 47.2293C17.1439 47.3334 16.8939 47.3959 16.6648 47.3959C16.1023 47.3959 15.5398 47.0834 15.2689 46.5417C14.8731 45.7501 15.1856 44.8126 15.9773 44.4376L23.4356 40.7084V35.4167H26.5606V40.7084L34.0189 44.4376C34.8106 44.8126 35.1231 45.7501 34.7273 46.5417Z" fill="white"/>
<path d="M15.6233 24.4793C15.1858 24.4793 14.7275 24.2918 14.415 23.9168C13.8525 23.2501 13.9566 22.271 14.6233 21.7085L21.1858 16.2293C21.79 15.7293 22.5608 15.5209 23.29 15.6459C24.04 15.7709 24.6858 16.2292 25.0817 16.8959L27.2691 20.5417L33.3733 15.4585C34.0399 14.896 35.0191 15.0001 35.5816 15.6667C36.1441 16.3334 36.04 17.3126 35.3733 17.8751L28.8108 23.3542C28.2066 23.8542 27.4358 24.0626 26.7066 23.9376C25.9566 23.8126 25.3108 23.3543 24.9149 22.6876L22.7275 19.0418L16.6233 24.1251C16.3317 24.3542 15.9775 24.4793 15.6233 24.4793Z" fill="white"/>
</svg>
