<svg width="24" height="24" viewBox="0 0 24 24" fill="none" xmlns="http://www.w3.org/2000/svg">
<path opacity="0.4" d="M16.19 2H7.82001C4.17001 2 2 4.17 2 7.81V16.18C2 19.82 4.17 21.99 7.81 21.99H16.18C19.82 21.99 21.99 19.82 21.99 16.18V7.81C22 4.17 19.83 2 16.19 2Z" fill="white"/>
<path d="M17.9984 11.27C17.5784 11.27 17.2484 11.6 17.2484 12.02C17.2384 13.42 16.6984 14.73 15.7184 15.71C14.7284 16.7 13.4085 17.25 12.0085 17.25C10.6085 17.25 9.28843 16.7 8.29843 15.71C8.26843 15.68 8.24844 15.65 8.21844 15.62H9.04843C9.45843 15.62 9.79843 15.28 9.79843 14.87C9.79843 14.46 9.45843 14.12 9.04843 14.12H6.39844C5.98844 14.12 5.64844 14.46 5.64844 14.87V17.52C5.64844 17.93 5.98844 18.27 6.39844 18.27C6.80844 18.27 7.14844 17.93 7.14844 17.52V16.67C7.17844 16.7 7.20843 16.74 7.23843 16.78C8.50843 18.05 10.2085 18.76 12.0085 18.76C13.8085 18.76 15.5084 18.06 16.7784 16.78C18.0384 15.52 18.7384 13.83 18.7484 12.03C18.7484 11.61 18.4084 11.28 17.9984 11.27Z" fill="white"/>
<path d="M6.00022 12.65C6.41022 12.65 6.74022 12.32 6.75022 11.91C6.77022 10.54 7.32022 9.25 8.28022 8.28C9.27022 7.29 10.5902 6.74 11.9902 6.74C13.3902 6.74 14.7102 7.29 15.7002 8.28C15.7302 8.31 15.7502 8.34 15.7802 8.37H14.9502C14.5402 8.37 14.2002 8.71 14.2002 9.12C14.2002 9.53 14.5402 9.87 14.9502 9.87H17.6002C18.0102 9.87 18.3502 9.53 18.3502 9.12V6.48C18.3502 6.07 18.0102 5.73 17.6002 5.73C17.1902 5.73 16.8502 6.07 16.8502 6.48V7.34C16.8202 7.31 16.7902 7.27 16.7602 7.23C15.4902 5.96 13.7902 5.25 11.9902 5.25C10.1902 5.25 8.49022 5.95 7.22022 7.23C5.97022 8.47 5.27022 10.13 5.25022 11.89C5.24022 12.3 5.57021 12.64 5.99021 12.65C6.00021 12.65 6.00022 12.65 6.00022 12.65Z" fill="white"/>
</svg>
