<svg width="50" height="50" viewBox="0 0 50 50" fill="none" xmlns="http://www.w3.org/2000/svg">
<path opacity="0.4" d="M39.5846 18.75C39.5846 21.7708 38.6888 24.5417 37.1471 26.8542C34.8971 30.1875 31.3346 32.5416 27.1888 33.1458C26.4805 33.2708 25.7513 33.3333 25.0013 33.3333C24.2513 33.3333 23.5221 33.2708 22.8138 33.1458C18.668 32.5416 15.1055 30.1875 12.8555 26.8542C11.3138 24.5417 10.418 21.7708 10.418 18.75C10.418 10.6875 16.9388 4.16663 25.0013 4.16663C33.0638 4.16663 39.5846 10.6875 39.5846 18.75Z" fill="white"/>
<path d="M44.2721 38.4792L40.8346 39.2916C40.0637 39.4791 39.4596 40.0625 39.2929 40.8334L38.5637 43.8959C38.1679 45.5625 36.0429 46.0625 34.9387 44.75L25.0012 33.3333L15.0637 44.7708C13.9596 46.0833 11.8346 45.5833 11.4387 43.9167L10.7096 40.8541C10.5221 40.0833 9.91789 39.4792 9.16789 39.3125L5.73039 38.5C4.14706 38.125 3.58456 36.1458 4.73039 35L12.8554 26.875C15.1054 30.2083 18.6679 32.5625 22.8137 33.1667C23.5221 33.2917 24.2512 33.3542 25.0012 33.3542C25.7512 33.3542 26.4804 33.2917 27.1887 33.1667C31.3346 32.5625 34.8971 30.2083 37.1471 26.875L45.2721 35C46.4179 36.125 45.8554 38.1042 44.2721 38.4792Z" fill="white"/>
<path d="M26.2071 12.4584L27.4363 14.9167C27.603 15.25 28.0405 15.5834 28.4363 15.6459L30.6655 16.0209C32.0821 16.25 32.4155 17.2917 31.3946 18.3125L29.6655 20.0417C29.3738 20.3333 29.2071 20.8959 29.3113 21.3125L29.8113 23.4584C30.2071 25.1459 29.3113 25.8125 27.8113 24.9167L25.728 23.6875C25.353 23.4583 24.728 23.4583 24.353 23.6875L22.2696 24.9167C20.7696 25.7917 19.8738 25.1459 20.2696 23.4584L20.7696 21.3125C20.853 20.9167 20.7071 20.3333 20.4155 20.0417L18.6863 18.3125C17.6655 17.2917 17.9988 16.2709 19.4155 16.0209L21.6446 15.6459C22.0196 15.5834 22.4571 15.25 22.6238 14.9167L23.853 12.4584C24.4571 11.125 25.5405 11.125 26.2071 12.4584Z" fill="white"/>
</svg>
