<svg width="24" height="24" viewBox="0 0 24 24" fill="none" xmlns="http://www.w3.org/2000/svg">
<path opacity="0.4" d="M12.0011 17.3501C12.9013 17.3501 13.6311 16.6203 13.6311 15.7201C13.6311 14.8199 12.9013 14.0901 12.0011 14.0901C11.1009 14.0901 10.3711 14.8199 10.3711 15.7201C10.3711 16.6203 11.1009 17.3501 12.0011 17.3501Z" fill="white"/>
<path d="M16.65 9.43994H7.35C3.25 9.43994 2 10.6899 2 14.7899V16.6499C2 20.7499 3.25 21.9999 7.35 21.9999H16.65C20.75 21.9999 22 20.7499 22 16.6499V14.7899C22 10.6899 20.75 9.43994 16.65 9.43994ZM12 18.7399C10.33 18.7399 8.98 17.3799 8.98 15.7199C8.98 14.0599 10.33 12.6999 12 12.6999C13.67 12.6999 15.02 14.0599 15.02 15.7199C15.02 17.3799 13.67 18.7399 12 18.7399Z" fill="white"/>
<path opacity="0.4" d="M7.11875 9.45V8.28C7.11875 5.35 7.94875 3.4 11.9988 3.4C16.3288 3.4 16.8787 5.51 16.8787 7.35C16.8787 7.74 17.1888 8.05 17.5788 8.05C17.9688 8.05 18.2788 7.74 18.2788 7.35C18.2788 3.8 16.1688 2 11.9988 2C6.36875 2 5.71875 5.58 5.71875 8.28V9.53C6.13875 9.48 6.60875 9.45 7.11875 9.45Z" fill="white"/>
</svg>
