<svg width="24" height="24" viewBox="0 0 24 24" fill="none" xmlns="http://www.w3.org/2000/svg">
<path opacity="0.4" d="M10.7489 2.45007C11.4389 1.86007 12.5689 1.86007 13.2689 2.45007L14.8489 3.81007C15.1489 4.07007 15.7089 4.28007 16.1089 4.28007H17.8089C18.8689 4.28007 19.7389 5.15007 19.7389 6.21007V7.91007C19.7389 8.30007 19.9489 8.87007 20.2089 9.17007L21.5689 10.7501C22.1589 11.4401 22.1589 12.5701 21.5689 13.2701L20.2089 14.8501C19.9489 15.1501 19.7389 15.7101 19.7389 16.1101V17.8101C19.7389 18.8701 18.8689 19.7401 17.8089 19.7401H16.1089C15.7189 19.7401 15.1489 19.9501 14.8489 20.2101L13.2689 21.5701C12.5789 22.1601 11.4489 22.1601 10.7489 21.5701L9.16891 20.2101C8.86891 19.9501 8.30891 19.7401 7.90891 19.7401H6.17891C5.11891 19.7401 4.24891 18.8701 4.24891 17.8101V16.1001C4.24891 15.7101 4.03891 15.1501 3.78891 14.8501L2.43891 13.2601C1.85891 12.5701 1.85891 11.4501 2.43891 10.7601L3.78891 9.17007C4.03891 8.87007 4.24891 8.31007 4.24891 7.92007V6.20007C4.24891 5.14007 5.11891 4.27007 6.17891 4.27007H7.90891C8.29891 4.27007 8.86891 4.06007 9.16891 3.80007L10.7489 2.45007Z" fill="white"/>
<path d="M10.7886 15.17C10.5886 15.17 10.3986 15.09 10.2586 14.95L7.83859 12.53C7.54859 12.24 7.54859 11.76 7.83859 11.47C8.12859 11.18 8.60859 11.18 8.89859 11.47L10.7886 13.36L15.0886 9.06003C15.3786 8.77003 15.8586 8.77003 16.1486 9.06003C16.4386 9.35003 16.4386 9.83003 16.1486 10.12L11.3186 14.95C11.1786 15.09 10.9886 15.17 10.7886 15.17Z" fill="white"/>
</svg>
